# xmcd CD database file
# Copyright (C) 1993-1996 Ti Kan
#
# Track frame offsets:
# 150
# 14595
# 28130
# 41922
# 55982
# 73230
# 88277
# 101067
# 115425
# 127010
#
# Disc length: 1988 seconds
# Revision: 0
# Processed by: cddbd v1.4b41PL1 Copyright (c) Steve Scherf et al.
# Submitted via: CDSpectrumPro v3.2.327
#
DISCID=9c07c20a
DTITLE=Lacy J Dalton - Survivor
DYEAR=1900
DGENRE=
TTITLE0=I'm A Survivor
TTITLE1=Walking Wounded
TTITLE2=A Diamond All The Time
TTITLE3=Still Crazy After All These Years
TTITLE4=Old Friends
TTITLE5=Turn To The One
TTITLE6=The Heart
TTITLE7=Me And These Arms
TTITLE8=They Don't Make Them Like They Used To
TTITLE9=Hard Luck Ace
EXTD=
EXTT0=
EXTT1=
EXTT2=
EXTT3=
EXTT4=
EXTT5=
EXTT6=
EXTT7=
EXTT8=
EXTT9=
PLAYORDER=
